<svg width="854" height="151" viewBox="0 0 854 151" fill="none" xmlns="http://www.w3.org/2000/svg">
<g clip-path="url(#clip0)">
<path d="M0 147.3V0H65.7C93.7 0 108.1 17.9 108.1 37.5C108.1 55.8 96.6 68.4 82.7 71.3C98.6 73.7 111 89 111 107.3C111 129.6 96.4 147.3 68.2 147.3H0ZM76.1 43.1C76.1 34 69.5 27.6 58.9 27.6H31.4V58.5H58.9C69.5 58.5 76.1 52.6 76.1 43.1ZM79 102.9C79 93.6 72.4 86.1 60.2 86.1H31.4V119.7H60.3C71.9 119.7 79 113.5 79 102.9Z" fill="#BDBDBD"/>
<path d="M119.6 104.6V40.6001H147.8V103.7C147.8 116.4 155.5 125.6 170.5 125.6C185.3 125.6 193.1 116.4 193.1 103.7V40.6001H221.2V104.5C221.2 131.3 205.1 150.1 170.6 150.1C136.1 150.1 119.6 131.1 119.6 104.6Z" fill="#BDBDBD"/>
<path d="M230.5 147.3V126.3L278.6 65.1001H230.5V40.6001H316.8V60.7001L267.8 122.8H317.7V147.3H230.5Z" fill="#BDBDBD"/>
<path d="M326.9 147.3V126.3L375 65.1001H326.9V40.6001H413.2V60.7001L364.2 122.8H414.1V147.3H326.9Z" fill="#BDBDBD"/>
<path d="M424.6 147.3V0H526.8V27.6H456V58.5H509.3V86.1H456V147.3H424.6Z" fill="#BDBDBD"/>
<path d="M517.199 93.9C517.199 63 540.199 38 572.399 38C604.399 38 625.799 61.9 625.799 96.5V103.1H546.499C548.499 116.1 559.099 127 577.199 127C586.299 127 598.599 123.2 605.499 116.6L618.099 135.2C607.499 144.9 590.699 150 574.199 150C541.699 150 517.199 128.1 517.199 93.9ZM572.399 61C554.999 61 547.399 73.1 546.299 83.7H598.899C597.999 73.5 590.899 61 572.399 61Z" fill="#BDBDBD"/>
<path d="M633.4 93.9C633.4 63 656.4 38 688.6 38C720.6 38 742 61.9 742 96.5V103.1H662.7C664.7 116.1 675.3 127 693.4 127C702.5 127 714.8 123.2 721.7 116.6L734.3 135.2C723.7 144.9 706.9 150 690.4 150C657.9 150 633.4 128.1 633.4 93.9ZM688.6 61C671.2 61 663.6 73.1 662.5 83.7H715.1C714.2 73.5 707.1 61 688.6 61Z" fill="#BDBDBD"/>
<path d="M752.301 147.5V40.3999H795.301C829.001 40.3999 853.301 60.5999 853.301 93.8999C853.301 127.1 829.101 147.5 795.501 147.5H752.301ZM826.001 93.8999C826.001 77.2999 816.001 63.4999 796.401 63.4999H779.001V124.4H796.401C815.101 124.4 826.001 109.8 826.001 93.8999Z" fill="#BDBDBD"/>
</g>
<defs>
<clipPath id="clip0">
<rect width="853.3" height="150.1" fill="white"/>
</clipPath>
</defs>
</svg>
